<svg width="190" height="190" viewBox="0 0 190 190" fill="none" xmlns="http://www.w3.org/2000/svg">
<path d="M0 48C0 21.4903 21.4903 0 48 0H142C168.51 0 190 21.4903 190 48V190H48C21.4903 190 0 168.51 0 142V48Z" fill="white"/>
<path d="M102.882 84.4206V149H87.158V141.84C81.8539 145.656 75.6485 148.041 69.1448 148.764C62.641 149.486 56.0601 148.522 50.0415 145.964C44.0229 143.406 38.7713 139.342 34.7971 134.166C30.8228 128.991 28.2611 122.88 27.3607 116.428C26.4604 109.975 27.2522 103.401 29.659 97.3428C32.0658 91.285 36.0059 85.95 41.0964 81.8562C46.1869 77.7624 52.2547 75.0491 58.71 73.9798C65.1654 72.9105 71.7889 73.5217 77.9368 75.7539V93.3141C73.8935 90.413 68.9873 88.9505 64.0077 89.1618C59.0281 89.3731 54.2647 91.2461 50.4841 94.4791C46.7035 97.7122 44.1255 102.117 43.1651 106.986C42.2047 111.854 42.9176 116.903 45.1892 121.319C47.4607 125.735 51.1588 129.262 55.6883 131.333C60.2178 133.403 65.3153 133.896 70.1605 132.732C75.0056 131.569 79.3167 128.817 82.3998 124.918C85.483 121.02 87.1589 116.203 87.158 111.241V73.5635C87.158 56.7401 105.575 40.0119 125.098 40.0119C130.391 39.8798 135.654 40.8518 140.547 42.8654C145.44 44.879 149.856 47.8897 153.511 51.7038C157.166 55.5179 159.978 60.0511 161.767 65.0119C163.557 69.9727 164.283 75.2514 163.901 80.5085C163.518 85.7656 162.035 90.8849 159.546 95.5371C157.057 100.189 153.617 104.272 149.448 107.522C145.28 110.771 140.474 113.117 135.34 114.407C130.206 115.698 124.858 115.904 119.639 115.014C115.224 114.207 111.704 111.479 111.704 107.115C111.704 105.02 112.54 103.011 114.028 101.53C115.516 100.048 117.534 99.216 119.639 99.216H119.706C120.075 99.2283 120.444 99.2592 120.809 99.3084C121.977 99.4009 123.767 99.5241 124.949 99.5241C137.198 99.5241 147.311 89.9695 147.311 77.7763C147.344 74.8514 146.794 71.9491 145.692 69.2373C144.591 66.5255 142.96 64.0582 140.894 61.9782C138.827 59.8983 136.367 58.247 133.656 57.12C130.944 55.993 128.035 55.4127 125.096 55.4127C122.158 55.4127 119.249 55.993 116.537 57.12C113.826 58.247 111.365 59.8983 109.299 61.9782C107.233 64.0582 105.602 66.5255 104.501 69.2373C103.399 71.9491 102.849 74.8514 102.882 77.7763V84.4206Z" fill="url(#paint0_linear_141_268)"/>
<defs>
<linearGradient id="paint0_linear_141_268" x1="40.3121" y1="140.966" x2="151.643" y2="50.3976" gradientUnits="userSpaceOnUse">
<stop stop-color="#C30AFF"/>
<stop offset="0.51" stop-color="#2E4FFF"/>
<stop offset="1" stop-color="#3895FF"/>
</linearGradient>
</defs>
</svg>
